<?xml version="1.0" encoding="UTF-8"?>
<svg id="svg3745" width="486.2" height="406.86" version="1.1" viewBox="39.489 28.087 489.75 409.67" xmlns="http://www.w3.org/2000/svg">
 <path id="path38" d="m529.24 27.977c-2.08 5.2-192.49 240.24-192.49 240.24l-137.18 40.56z" fill="#363636"/>
 <g id="g4567" transform="translate(-17.668 -111.08)" fill="#363636">
  <g id="flowRoot3751" transform="matrix(1.5577 0 0 1.5577 -152.1 -205.47)" style="font-feature-settings:normal;font-variant-caps:normal;font-variant-ligatures:normal;font-variant-numeric:normal" aria-label="SPARK">
   <path id="path4527" d="m252.33 416.75q-0.66216-3.5178-4.9662-3.5178-2.1106 0-3.3108 0.86909-1.1588 0.82771-1.1588 2.0279t0.74494 1.9037q0.78632 0.66216 2.4003 1.2416l5.8353 2.2762q2.9797 1.1588 4.5938 2.9384 1.614 1.7382 1.614 4.3868 0 3.6419-2.7314 5.7939-2.7314 2.1106-7.7804 2.1106-4.4696 0-7.2424-2.1934-3.1039-2.4003-3.2694-6.7872h4.8421q0 3.3108 3.435 4.1799 1.0346 0.2897 2.7314 0.2897 1.6968 0 3.1453-0.82771 1.4485-0.86908 1.4485-2.2762 0-1.4485-0.78632-2.1934-0.78632-0.78632-2.5659-1.4485l-5.3387-2.1106q-3.1039-1.2002-4.7593-2.8142t-1.6554-4.4696q0-3.3522 2.6073-5.2973 2.6486-2.0279 7.1596-2.0279 4.5524 0 6.9941 2.1106 2.4831 2.0693 2.8556 5.8353z" style=""/>
   <path id="path4529" d="m274 409.34q4.5524 0 7.0769 2.2348 2.5659 2.1934 2.5659 6.3319 0 4.0971-2.5659 6.3319-2.5245 2.1934-7.0769 2.1934h-4.5524v9.7669h-4.9248v-26.859zm0 12.829q2.2762 0 3.435-1.2002 1.1588-1.2002 1.1588-3.0625 0-1.9037-1.1588-3.1039-1.1588-1.2416-3.435-1.2416h-4.5524v8.6081z" style=""/>
   <path id="path4531" d="m293.17 409.34h6.125l8.815 26.859h-5.1732l-1.8623-5.7939h-9.9738l-1.9037 5.7939h-5.1732zm-0.8277 17.382h7.5321l-3.7247-11.546z" style=""/>
   <path id="path4533" d="m332.85 417.57q0 2.8556-1.614 4.8834-1.614 2.0279-4.6351 2.8142l7.201 10.926h-6.3733l-5.9181-10.47h-3.7247v10.47h-4.8834v-26.859h9.9324q4.7593 0 7.408 2.2762 2.6073 2.1934 2.6073 5.9595zm-10.47 4.8834q2.69 0 4.0558-1.2002 1.3657-1.2416 1.3657-3.228 0-2.0279-1.2416-3.228-1.2416-1.2416-3.7247-1.2416h-5.049v8.8978z" style=""/>
   <path id="path4535" d="m344.5 409.34v11.05l10.595-11.05h6.7044l-11.836 12.084 12.622 14.775h-6.3319l-9.56-11.381-2.1934 2.2348v9.1461h-4.9248v-26.859z" style=""/>
  </g>
  <g id="flowRoot3765" transform="matrix(1.114 0 0 1.114 155.3 -28.615)" style="font-feature-settings:normal;font-variant-caps:normal;font-variant-ligatures:normal;font-variant-numeric:normal" aria-label="PAY">
   <path id="path4538" d="m251.85 414.79q6.0185 0 9.1435 3.0671 3.1829 3.0092 3.1829 8.1597t-3.1829 8.1597q-3.125 2.9514-9.1435 2.9514h-7.1759v14.062h-4.5717v-36.4zm0 18.403q3.7616 0 5.6713-1.9097 1.9676-1.9097 1.9676-5.2083 0-3.3565-1.9676-5.324-1.9097-2.0255-5.6713-2.0255h-7.1759v14.468z" style="fill: #ff533d"/>
   <path id="path4540" d="m278.33 414.79h5.5555l12.211 36.4h-4.7454l-3.125-9.2592h-14.468l-3.125 9.2592h-4.8032zm-3.3565 23.553h12.095l-6.0185-17.94z" style="fill: #ff533d"/>
   <path id="path4542" d="m302.1 414.79 9.78 16.724 10.012-16.724h5.3819l-13.079 21.47v14.93h-4.6296v-14.93l-12.905-21.47z" style="fill: #ff533d"/>
  </g>
 </g>
 <path id="path4557" d="m39.489 437.8c2.08-5.2 192.49-240.24 192.49-240.24l137.18-40.56z" fill="#363636"/>
</svg>
